<svg xmlns="http://www.w3.org/2000/svg" width="34" height="34" viewBox="0 0 34 34" fill="none">
  <defs>
    <linearGradient id="g" x1="0" y1="0" x2="34" y2="34" gradientUnits="userSpaceOnUse">
      <stop stop-color="#1A1A1A"/>
      <stop offset="1" stop-color="#2B2B2B"/>
    </linearGradient>
  </defs>
  <rect x="0.5" y="0.5" width="33" height="33" rx="10" fill="url(#g)" stroke="rgba(255,255,255,0.12)"/>
  <path d="M9.2 11.1h2.7l1.7 8.1 2.1-8.1h2.6l2.1 8.1 1.7-8.1h2.7L24 23H21.6l-2.3-8.4L17 23h-2.3L9.2 11.1Z" fill="#FFFFFF" opacity="0.92"/>
  <path d="M24.4 21.9c0.0-1.2.9-2.1 2.2-2.1 1.1 0 2 .7 2.1 1.8v.1c0 1.3-1 2.3-2.3 2.3-1.2 0-2-.8-2-2.1Z" fill="#D32F2F"/>
</svg>

